<?xml version="1.0" encoding="utf-8"?>
<!-- Generator: Adobe Illustrator 26.3.1, SVG Export Plug-In . SVG Version: 6.00 Build 0)  -->
<svg version="1.1" id="Calque_1" xmlns="http://www.w3.org/2000/svg" xmlns:xlink="http://www.w3.org/1999/xlink" x="0px" y="0px"
	 viewBox="0 0 24 24" style="enable-background:new 0 0 24 24;" xml:space="preserve">
<style type="text/css">
	.st0{fill:#2196F3;}
</style>
<path class="st0" d="M20,14H6c-2.2,0-4,1.8-4,4s1.8,4,4,4h14c1.1,0,2-0.9,2-2v-4C22,14.9,21.1,14,20,14 M6,20c-1.1,0-2-0.9-2-2
	s0.9-2,2-2s2,0.9,2,2S7.1,20,6,20 M6.3,12L13,5.3c0.8-0.8,2-0.8,2.8,0l2.8,2.8c0.8,0.8,0.8,2,0,2.8L17.7,12H6.3 M2,13.5V4
	c0-1.1,0.9-2,2-2h4c1.1,0,2,0.9,2,2v1.5L2,13.5z"/>
</svg>
